<mxfile host="app.diagrams.net" modified="2024-04-30T13:07:05.833Z" agent="Mozilla/5.0 (X11; Ubuntu; Linux x86_64; rv:125.0) Gecko/20100101 Firefox/125.0" version="24.3.1" etag="NgEHh_5kT2VJCAdm5HJH" type="github">
  <diagram name="Page-1" id="EQNlh-3GBPTCRKrLoAq2">
    <mxGraphModel>
      <root>
        <mxCell id="0" />
        <mxCell id="1" parent="0" />
      </root>
    </mxGraphModel>
  </diagram>
</mxfile>
